<?xml version="1.0" encoding="UTF-8" standalone="no"?>
<!-- Created with Inkscape (http://www.inkscape.org/) -->

<svg
   height="1000"
   width="500"
   sodipodi:docname="000020_ascii.svg"
   version="1.1"
   id="svg1"
   viewBox="0 0 500 1000"
   inkscape:version="1.4.2 (ebf0e940d0, 2025-05-08)"
   xmlns:inkscape="http://www.inkscape.org/namespaces/inkscape"
   xmlns:sodipodi="http://sodipodi.sourceforge.net/DTD/sodipodi-0.dtd"
   xmlns="http://www.w3.org/2000/svg"
   xmlns:svg="http://www.w3.org/2000/svg"
   xmlns:rdf="http://www.w3.org/1999/02/22-rdf-syntax-ns#"
   xmlns:cc="http://creativecommons.org/ns#"
   xmlns:dc="http://purl.org/dc/elements/1.1/">
  <sodipodi:namedview
     id="base"
     pagecolor="#ffffff"
     bordercolor="#000000"
     borderopacity="0.3"
     inkscape:pageopacity="0.0"
     inkscape:pageshadow="2"
     inkscape:zoom="0.464"
     inkscape:cx="268.31897"
     inkscape:cy="435.34483"
     inkscape:document-units="px"
     inkscape:current-layer="layer17"
     showgrid="false"
     showguides="true"
     inkscape:window-width="1362"
     inkscape:window-height="730"
     inkscape:window-x="0"
     inkscape:window-y="0"
     inkscape:window-maximized="0"
     showborder="true"
     inkscape:showpageshadow="false"
     inkscape:pagecheckerboard="0"
     inkscape:deskcolor="#505050">
    <sodipodi:guide
       position="0,1000"
       orientation="0,1000"
       id="ink-font-guide-ascender"
       inkscape:label="ascender"
       inkscape:locked="false" />
    <sodipodi:guide
       position="0,850"
       orientation="0,1000"
       id="ink-font-guide-caps"
       inkscape:label="caps"
       inkscape:locked="false" />
    <sodipodi:guide
       position="0,650"
       orientation="0,1000"
       id="ink-font-guide-x-height"
       inkscape:label="x-height"
       inkscape:locked="false" />
    <sodipodi:guide
       position="0,200"
       orientation="0,1000"
       id="ink-font-guide-baseline"
       inkscape:label="baseline"
       inkscape:locked="false" />
    <sodipodi:guide
       position="0,0"
       orientation="0,1000"
       id="ink-font-guide-descender"
       inkscape:label="descender"
       inkscape:locked="false" />
    <sodipodi:guide
       position="500,1000"
       orientation="-1,0"
       id="guide2"
       inkscape:locked="false"
       inkscape:label=""
       inkscape:color="rgb(0,134,229)" />
    <sodipodi:guide
       position="250,348.07692"
       orientation="-1,0"
       id="guide3"
       inkscape:locked="false"
       inkscape:label=""
       inkscape:color="rgb(0,134,229)" />
  </sodipodi:namedview>
  <defs
     id="defs4">
    <inkscape:path-effect
       effect="simplify"
       id="path-effect8"
       is_visible="true"
       lpeversion="1.3"
       threshold="45.714286"
       steps="1"
       smooth_angles="360"
       helper_size="0"
       simplify_individual_paths="false"
       simplify_just_coalesce="false" />
    <inkscape:path-effect
       effect="simplify"
       id="path-effect7"
       is_visible="true"
       lpeversion="1.3"
       threshold="45.714286"
       steps="1"
       smooth_angles="360"
       helper_size="0"
       simplify_individual_paths="false"
       simplify_just_coalesce="false" />
    <inkscape:path-effect
       effect="simplify"
       id="path-effect1"
       is_visible="true"
       lpeversion="1.3"
       threshold="45.714286"
       steps="1"
       smooth_angles="360"
       helper_size="0"
       simplify_individual_paths="false"
       simplify_just_coalesce="false" />
  </defs>
  <metadata
     id="metadata7">
    <rdf:RDF>
      <cc:Work
         rdf:about="">
        <dc:format>image/svg+xml</dc:format>
        <dc:type
           rdf:resource="http://purl.org/dc/dcmitype/StillImage" />
      </cc:Work>
    </rdf:RDF>
  </metadata>
  <g
     id="layer2"
     inkscape:label="glyphs"
     style="display:inline;stroke-width:50;stroke-dasharray:none">
    <g
       inkscape:groupmode="layer"
       id="layer17"
       inkscape:label="0075 u"
       style="display:inline;stroke-width:50;stroke-dasharray:none">
      <path
         style="fill:none;stroke:#000000;stroke-width:50;stroke-linecap:round;stroke-linejoin:round;stroke-dasharray:none"
         d="m 92.672414,379.31034 c 1.969441,94.69882 -28.609252,190.4456 -6.52461,284.15797 10.797554,45.81755 57.495676,73.22364 99.413506,81.06544 40.58105,7.59171 92.00788,9.48468 121.00713,-17.80597 50.72289,-47.73434 46.0934,-124.58614 47.50486,-190.75626 1.12786,-52.87481 13.98209,-106.10166 3.68532,-158.81635"
         id="path7"
         inkscape:path-effect="#path-effect7"
         inkscape:original-d="m 92.672414,379.31034 c 3.264635,103.7752 -51.109427,303.08479 34.555476,335.88311 65.55475,46.87614 95.11431,33.96362 174.6018,15.274 51.76632,-38.19846 64.35281,-131.40567 52.24361,-194.49593 0.67279,-48.29012 14.12462,-106.51244 3.68532,-158.81635"
         sodipodi:nodetypes="ccccc" />
      <path
         style="fill:none;stroke:#000000;stroke-width:50;stroke-linecap:round;stroke-linejoin:round;stroke-dasharray:none"
         d="m 353.44827,672.41379 c 11.986,34.60954 27.57319,68.7335 53.61499,95.45219 5.61716,5.76316 11.49379,11.26856 17.50571,16.61678"
         id="path8"
         inkscape:path-effect="#path-effect8"
         inkscape:original-d="m 353.44827,672.41379 c 18.70123,51.49825 29.18311,74.77274 71.1207,112.06897"
         sodipodi:nodetypes="cc" />
    </g>
    <g
       inkscape:groupmode="layer"
       id="layer19"
       inkscape:label="004f O"
       style="display:none;stroke-width:50;stroke-dasharray:none">
      <path
         style="fill:none;stroke:#000000;stroke-width:50;stroke-linecap:round;stroke-dasharray:none"
         d="m 243.78889,215.72081 c -43.68578,-17.1434 -61.06053,37.71207 -81.0772,64.83732 -27.38891,33.06471 -49.45029,68.77929 -61.88868,110.13004 -25.744029,58.69748 -57.194338,124.96635 -37.070824,189.93146 15.707147,42.62317 41.028564,81.2262 67.022224,118.09131 41.98534,47.87714 122.54478,73.49486 176.60371,30.64201 34.09497,-24.00811 70.90974,-49.54499 84.61753,-91.09073 33.26688,-90.26438 28.86719,-193.45329 -6.86248,-282.27808 -17.27283,-38.35562 -36.39011,-76.45846 -59.70639,-111.37794 -20.20792,-23.66332 -51.94436,-30.51807 -81.63789,-28.88539 z"
         id="path43" />
    </g>
    <g
       inkscape:groupmode="layer"
       id="layer20"
       inkscape:label="004a J"
       style="display:none;stroke-width:50;stroke-dasharray:none">
      <path
         style="fill:none;stroke:#000000;stroke-width:50;stroke-linecap:round;stroke-dasharray:none"
         d="m 305.76923,213.46153 c 42.04361,8.1891 84.71285,-0.56301 126.92308,-1.92307"
         id="path41" />
      <path
         style="fill:none;stroke:#000000;stroke-width:50;stroke-linecap:round;stroke-dasharray:none"
         d="m 367.30769,228.84615 c 10.10084,154.04676 17.6044,316.4395 -46.94307,460.71335 -26.21406,54.21604 -99.01831,59.45469 -149.02199,38.85241 -51.18693,-20.322 -96.387065,-60.62134 -115.573399,-113.0273"
         id="path42" />
    </g>
    <g
       inkscape:groupmode="layer"
       id="layer16"
       inkscape:label="0049 I"
       style="display:none;stroke-width:50;stroke-dasharray:none">
      <path
         style="fill:none;stroke:#000000;stroke-width:50;stroke-linecap:round;stroke-dasharray:none"
         d="m 100,201.92308 c 88.56799,-2.6792 177.32387,-4.7704 265.38462,-15.38502"
         id="path38" />
      <path
         style="fill:none;stroke:#000000;stroke-width:50;stroke-linecap:round;stroke-dasharray:none"
         d="m 226.92308,207.69231 c 8.87232,175.95415 31.35445,353.6815 1.92307,528.84615"
         id="path39" />
      <path
         style="fill:none;stroke:#000000;stroke-width:50;stroke-linecap:round;stroke-dasharray:none"
         d="m 80.769231,744.23077 c 93.677119,6.09882 187.751939,0.10264 280.769229,-11.5385"
         id="path40" />
    </g>
    <g
       inkscape:groupmode="layer"
       id="layer15"
       inkscape:label="0048 H"
       style="display:none;stroke-width:50;stroke-dasharray:none">
      <path
         style="fill:none;stroke:#000000;stroke-width:50;stroke-linecap:round;stroke-dasharray:none"
         d="M 76.923077,211.53846 C 88.94189,382.43441 87.574292,554.17834 75,725"
         id="path35" />
      <path
         style="fill:none;stroke:#000000;stroke-width:50;stroke-linecap:round;stroke-dasharray:none"
         d="m 101.92308,467.30769 c 93.6663,17.87616 186.9283,-17.47972 280.76923,-11.53844"
         id="path36" />
      <path
         style="fill:none;stroke:#000000;stroke-width:50;stroke-linecap:round;stroke-dasharray:none"
         d="m 403.84615,180.76923 c -0.113,186.67189 -3.79753,373.50854 -19.23075,559.61539"
         id="path37" />
    </g>
    <g
       inkscape:groupmode="layer"
       id="layer14"
       inkscape:label="0046 F"
       style="display:none;stroke-width:50;stroke-dasharray:none">
      <path
         style="fill:none;stroke:#000000;stroke-width:50;stroke-linecap:round;stroke-dasharray:none"
         d="M 105.76923,173.07692 C 115.0042,363.865 106.88881,556.07983 90.384615,746.15385"
         id="path17" />
      <path
         style="fill:none;stroke:#000000;stroke-width:50;stroke-linecap:round;stroke-dasharray:none"
         d="m 111.53846,182.69231 c 102.55408,-2.08753 205.24068,2.71203 307.69231,-3.84616"
         id="path18" />
      <path
         style="fill:none;stroke:#000000;stroke-width:50;stroke-linecap:round;stroke-dasharray:none"
         d="M 121.15385,438.46154 C 213.50355,454.62558 307.12807,435.76972 400,436.53842"
         id="path19" />
    </g>
    <g
       inkscape:groupmode="layer"
       id="layer13"
       inkscape:label="0045 E"
       style="display:none;stroke-width:50;stroke-dasharray:none"
       sodipodi:insensitive="true">
      <path
         style="fill:none;stroke:#000000;stroke-width:50;stroke-linecap:round;stroke-dasharray:none"
         d="m 101.92308,226.92307 c 47.66107,161.16137 -18.701184,362.83909 4.10649,510.80067 85.39191,2.17924 204.2077,-21.90336 295.89351,6.50703"
         id="path3"
         sodipodi:nodetypes="ccc" />
      <path
         style="fill:none;stroke:#000000;stroke-width:50;stroke-linecap:round;stroke-dasharray:none"
         d="m 134.61538,476.92307 c 66.02802,-1.39673 132.24643,-2.47532 198.07693,3.84611"
         id="path4" />
      <path
         style="fill:none;stroke:#000000;stroke-width:50;stroke-linecap:round;stroke-dasharray:none"
         d="m 115.38461,225 c 47.03565,-20.62883 99.34016,-10.08013 148.48096,-5.78165 38.90714,2.42132 77.90972,4.3584 116.90366,3.85857"
         id="path5" />
    </g>
    <g
       inkscape:groupmode="layer"
       id="layer12"
       inkscape:label="0029 parenright"
       style="display:none;stroke-width:50;stroke-dasharray:none"
       sodipodi:insensitive="true">
      <path
         style="fill:none;stroke:#000000;stroke-width:50;stroke-linecap:round;stroke-dasharray:none;stroke-opacity:1"
         d="m 208.8461,127.03981 c 83.38112,40.47976 109.05247,141.63398 130.60642,224.34853 16.57291,104.96496 9.19588,213.37827 -8.39417,317.51623 -21.38832,76.15518 -70.23431,141.87292 -127.98145,194.6737"
         id="path31-6" />
    </g>
    <g
       inkscape:groupmode="layer"
       id="layer11"
       inkscape:label="0028 parenleft"
       style="display:none;stroke-width:50;stroke-dasharray:none"
       sodipodi:insensitive="true">
      <path
         style="fill:none;stroke:#000000;stroke-width:50;stroke-linecap:round;stroke-dasharray:none;stroke-opacity:1"
         d="M 313.46154,117.30769 C 221.69306,169.8145 190.3338,281.10834 179.14997,379.44853 c -10.24035,101.47344 -8.41001,206.76288 21.89989,304.84401 21.63576,67.23818 65.58566,123.47005 118.18091,169.55361"
         id="path31" />
    </g>
    <g
       inkscape:groupmode="layer"
       id="layer10"
       inkscape:label="0027 quotesingle"
       style="display:none;stroke-width:50;stroke-dasharray:none"
       sodipodi:insensitive="true">
      <path
         style="display:inline;fill:none;stroke:#000000;stroke-width:50;stroke-linecap:round;stroke-dasharray:none;stroke-opacity:1"
         d="m 254.61538,168.53846 c 7.07937,37.37763 5.77581,75.61965 5.76924,113.46154"
         id="path10-7" />
    </g>
    <g
       inkscape:groupmode="layer"
       id="layer9"
       inkscape:label="0026 ampersand"
       style="display:none;stroke-width:50;stroke-dasharray:none"
       sodipodi:insensitive="true">
      <path
         style="fill:none;stroke:#000000;stroke-width:50;stroke-linecap:round;stroke-dasharray:none;stroke-opacity:1"
         d="M 444.23077,784.61538 C 435.75992,712.06632 458.56449,634.93738 427.17065,565.92514 402.13842,512.236 340.9966,492.64542 287.14613,482.19988 229.16565,470.51972 165.78909,462.83696 119.88314,421.75476 52.419108,385.41338 24.948143,292.43365 62.812295,225.61094 c 15.415938,-30.96095 44.385825,-52.66916 77.551955,-61.39956 58.95473,-18.36866 133.59048,-15.87887 177.74327,32.65598 27.77564,30.6523 24.31442,78.96714 7.54757,114.26434 -41.16878,79.39053 -131.42032,115.48928 -178.99982,189.96295 -40.71531,57.77905 -80.767541,125.95793 -71.330439,199.44256 2.521191,27.04919 15.809244,54.1399 45.047949,58.86366 54.73127,15.40214 108.54492,-16.73475 149.57572,-50.06959 80.33616,-68.92339 152.14694,-159.05501 166.58997,-267.02359"
         id="path28" />
    </g>
    <g
       inkscape:groupmode="layer"
       id="layer8"
       inkscape:label="0025 percent"
       style="display:none;stroke-width:50;stroke-dasharray:none"
       sodipodi:insensitive="true">
      <path
         style="fill:none;stroke:#000000;stroke-width:50;stroke-linecap:round;stroke-dasharray:none;stroke-opacity:1"
         d="M 436.53846,130.76924 C 329.05185,297.78751 284.71946,401.6353 236.23343,514.4153 208.08504,561.15186 118.44251,757.2179 90.384615,803.84616"
         id="path24"
         sodipodi:nodetypes="ccc" />
      <path
         style="fill:none;stroke:#000000;stroke-width:50;stroke-linecap:round;stroke-dasharray:none;stroke-opacity:1"
         d="M 138.46154,113.46154 C 72.157499,144.69159 73.315795,236.64756 83.854012,297.37075 133.80241,365.05486 208.73677,277.39437 208.12802,218.44806 218.86526,175.35292 195.60675,97.782914 138.46154,113.46154 Z"
         id="path25" />
      <path
         style="fill:none;stroke:#000000;stroke-width:50;stroke-linecap:round;stroke-dasharray:none;stroke-opacity:1"
         d="m 328.84615,613.46154 c -56.98727,42.19189 -58.42479,171.36278 23.45222,180.72367 69.16051,-11.79179 101.77447,-107.91738 70.85246,-166.08847 -16.56281,-33.00639 -72.3516,-52.44769 -94.30468,-14.6352 z"
         id="path26" />
    </g>
    <g
       inkscape:groupmode="layer"
       id="layer7"
       inkscape:label="0024 dollar"
       style="display:none;stroke-width:50;stroke-dasharray:none"
       sodipodi:insensitive="true">
      <path
         style="fill:none;stroke:#000000;stroke-width:50;stroke-linecap:round;stroke-dasharray:none;stroke-opacity:1"
         d="M 405.76923,255.76923 C 342.11357,188.80609 223.8661,195.9632 151.86985,243.75848 83.270745,311.77805 113.46091,435.093 195.86992,478.03499 c 65.05533,42.89492 162.12457,45.3237 196.82876,126.22402 31.59376,92.77053 -87.86991,147.37937 -163.33664,152.27495 -33.46586,2.95865 -70.07989,4.13647 -100.51588,-12.30319"
         id="path21" />
      <path
         style="fill:none;stroke:#000000;stroke-width:50;stroke-linecap:round;stroke-dasharray:none;stroke-opacity:1"
         d="m 238.46154,121.15384 c 46.26454,201.30633 11.75164,293.9717 24.25103,451.47075 -0.72988,33.52267 -5.15179,226.53842 -5.02026,260.06772"
         id="path22"
         sodipodi:nodetypes="ccc" />
    </g>
    <g
       inkscape:groupmode="layer"
       id="layer6"
       inkscape:label="0023 numbersign"
       style="display:none;stroke-width:50;stroke-dasharray:none"
       sodipodi:insensitive="true">
      <path
         style="fill:none;stroke:#000000;stroke-width:50;stroke-linecap:round;stroke-dasharray:none;stroke-opacity:1"
         d="m 134.61538,271.15385 c 18.71091,168.62593 0.72503,337.98699 -17.30769,505.76923"
         id="path12" />
      <path
         style="fill:none;stroke:#000000;stroke-width:50;stroke-linecap:round;stroke-dasharray:none;stroke-opacity:1"
         d="m 369.23077,261.53846 c -22.80944,172.31118 4.90647,347.95225 -28.84615,519.23077"
         id="path13" />
      <path
         style="fill:none;stroke:#000000;stroke-width:50;stroke-linecap:round;stroke-dasharray:none;stroke-opacity:1"
         d="m 69.230769,409.61538 c 118.575461,3.23293 237.211801,0.90719 355.769221,-1.92357"
         id="path14" />
      <path
         style="fill:none;stroke:#000000;stroke-width:50;stroke-linecap:round;stroke-dasharray:none;stroke-opacity:1"
         d="m 76.923077,630.76923 c 112.003263,8.67355 224.438773,0.057 336.538463,5.76878"
         id="path15" />
    </g>
    <g
       inkscape:groupmode="layer"
       id="layer5"
       inkscape:label="0022 quotedb"
       style="display:none;stroke-width:50;stroke-dasharray:none"
       sodipodi:insensitive="true">
      <path
         style="fill:none;stroke:#000000;stroke-width:50;stroke-linecap:round;stroke-dasharray:none;stroke-opacity:1"
         d="M 361.53846,136.53846 C 368.62985,174.08207 367.3077,212.03155 367.3077,250"
         id="path10" />
      <path
         id="path9"
         style="fill:none;stroke:#000000;stroke-width:50;stroke-linecap:round;stroke-dasharray:none;stroke-opacity:1"
         d="m 153.84616,128.84615 c 0.12816,42.51138 -1.35737,86.33056 13.46154,126.92308" />
    </g>
    <g
       inkscape:groupmode="layer"
       id="layer4"
       inkscape:label="0021 exclam"
       style="display:none;stroke-width:50;stroke-dasharray:none">
      <path
         style="fill:none;stroke:#000000;stroke-width:50;stroke-linecap:round;stroke-dasharray:none;stroke-opacity:1"
         d="m 270.42395,593.61073 c -8.31622,-60.30481 8.09461,-121.96037 -9.81436,-181.34689 -9.20853,-58.10125 -14.07067,-117.03357 -8.34217,-175.79581 -1.11668,-37.66672 -8.7828,-74.97371 -5.4212,-112.77107"
         id="path6" />
      <path
         style="fill:none;stroke:#000000;stroke-width:50;stroke-linecap:round;stroke-linejoin:round;stroke-dasharray:none"
         d="m 271.55172,758.62069 c -6.39617,6.25331 -15.6823,5.52779 -17.95286,-4.91528 -1.5037,-6.91602 -6.71415,-12.96241 -14.37472,-12.3261"
         id="path1"
         inkscape:original-d="m 271.55172,758.62069 c -25.62224,16.45015 -9.44732,-17.24138 -32.32758,-17.24138"
         inkscape:path-effect="#path-effect1"
         sodipodi:nodetypes="cc" />
    </g>
  </g>
</svg>
