<?xml version="1.0" encoding="UTF-8" standalone="no"?>
<!-- Created with Inkscape (http://www.inkscape.org/) -->

<svg
   height="1000"
   width="500"
   sodipodi:docname="000020_ascii.svg"
   version="1.1"
   id="svg1"
   viewBox="0 0 500 1000"
   inkscape:version="1.4.2 (ebf0e940d0, 2025-05-08)"
   xmlns:inkscape="http://www.inkscape.org/namespaces/inkscape"
   xmlns:sodipodi="http://sodipodi.sourceforge.net/DTD/sodipodi-0.dtd"
   xmlns="http://www.w3.org/2000/svg"
   xmlns:svg="http://www.w3.org/2000/svg"
   xmlns:rdf="http://www.w3.org/1999/02/22-rdf-syntax-ns#"
   xmlns:cc="http://creativecommons.org/ns#"
   xmlns:dc="http://purl.org/dc/elements/1.1/">
  <sodipodi:namedview
     id="base"
     pagecolor="#ffffff"
     bordercolor="#000000"
     borderopacity="0.3"
     inkscape:pageopacity="0.0"
     inkscape:pageshadow="2"
     inkscape:zoom="0.464"
     inkscape:cx="269.39655"
     inkscape:cy="433.18966"
     inkscape:document-units="px"
     inkscape:current-layer="svg1"
     showgrid="false"
     showguides="true"
     inkscape:window-width="1362"
     inkscape:window-height="730"
     inkscape:window-x="0"
     inkscape:window-y="0"
     inkscape:window-maximized="0"
     showborder="true"
     inkscape:showpageshadow="false"
     inkscape:pagecheckerboard="0"
     inkscape:deskcolor="#505050">
    <sodipodi:guide
       position="0,1000"
       orientation="0,1000"
       id="ink-font-guide-ascender"
       inkscape:label="ascender"
       inkscape:locked="false" />
    <sodipodi:guide
       position="0,850"
       orientation="0,1000"
       id="ink-font-guide-caps"
       inkscape:label="caps"
       inkscape:locked="false" />
    <sodipodi:guide
       position="0,650"
       orientation="0,1000"
       id="ink-font-guide-x-height"
       inkscape:label="x-height"
       inkscape:locked="false" />
    <sodipodi:guide
       position="0,200"
       orientation="0,1000"
       id="ink-font-guide-baseline"
       inkscape:label="baseline"
       inkscape:locked="false" />
    <sodipodi:guide
       position="0,0"
       orientation="0,1000"
       id="ink-font-guide-descender"
       inkscape:label="descender"
       inkscape:locked="false" />
    <sodipodi:guide
       position="500,1000"
       orientation="-1,0"
       id="guide2"
       inkscape:locked="false"
       inkscape:label=""
       inkscape:color="rgb(0,134,229)" />
    <sodipodi:guide
       position="250,348.07692"
       orientation="-1,0"
       id="guide3"
       inkscape:locked="false"
       inkscape:label=""
       inkscape:color="rgb(0,134,229)" />
  </sodipodi:namedview>
  <defs
     id="defs4" />
  <metadata
     id="metadata7">
    <rdf:RDF>
      <cc:Work
         rdf:about="">
        <dc:format>image/svg+xml</dc:format>
        <dc:type
           rdf:resource="http://purl.org/dc/dcmitype/StillImage" />
      </cc:Work>
    </rdf:RDF>
  </metadata>
  <g
     id="layer2"
     inkscape:label="glyphs"
     style="display:inline;stroke-width:80;stroke-dasharray:none">
    <g
       inkscape:groupmode="layer"
       id="layer17"
       inkscape:label="0075 u"
       style="display:none;stroke-width:80;stroke-dasharray:none">
      <path
         style="display:inline;fill:none;stroke:#000000;stroke-width:80;stroke-linecap:round;stroke-dasharray:none"
         d="m 67.857143,371.42857 c -0.319046,6.06187 -3.252383,11.79527 -3.571429,17.85714 -0.43799,8.32182 0.378397,16.67527 0,25 -1.048454,23.06599 -3.802998,46.4441 -1.785714,69.64286 3.377468,38.84089 7.450595,84.54405 25,119.64286 19.0145,38.029 52.89034,109.38883 94.64286,126.78571 25.04819,10.43675 53.55047,5.76561 76.78571,-7.14285 2.60166,-1.44537 4.5908,-3.82591 7.14286,-5.35715 6.39545,-3.83727 13.24741,-6.87701 19.64286,-10.71428 37.57496,-22.54498 63.4096,-60.59619 83.92857,-98.21429 12.25642,-22.47011 14.67251,-50.87122 21.42857,-75 1.37126,-4.89736 4.16383,-9.34198 5.35714,-14.28571 10.46422,-43.35175 6.31058,-24.1994 7.14286,-50 0.97621,-30.26268 5.04048,-64.39996 0,-94.64286 -0.0194,-0.11647 0.48599,-6.65687 0,-7.14286 -1.90232,-1.90231 -6.85166,11.55361 -7.14286,12.5 -6.29875,20.47094 -3.59154,55.6186 -5.35714,78.57143 -0.78145,10.15883 -2.72529,20.2035 -3.57143,30.35714 -0.96054,11.52653 1.78571,29.6509 1.78571,39.28572 0,9.59792 -3.03903,18.98828 -3.57142,28.57143 -1.06183,19.11291 0.32731,38.18362 1.78571,57.14285 1.79624,23.35118 1.78812,46.44419 5.35714,69.64286 1.22772,7.98019 2.48327,17.33633 5.35715,25 1.40202,3.73874 4.3887,6.84053 5.35714,10.71429 0.43154,1.72616 7.46741,32.46741 8.92857,33.92857"
         id="path44" />
    </g>
    <g
       inkscape:groupmode="layer"
       id="layer19"
       inkscape:label="004f O"
       style="display:none;stroke-width:80;stroke-dasharray:none">
      <path
         style="fill:none;stroke:#000000;stroke-width:80;stroke-linecap:round;stroke-dasharray:none"
         d="m 243.78889,215.72081 c -27.99974,-12.75419 -37.99648,-6.07344 -81.3076,65.53001 -9.56607,15.81498 -23.71524,28.98543 -32.52303,45.36695 -19.08803,9.64861 -12.53189,34.29898 -20.32692,50.4077 -1.97199,4.07523 -6.22912,5.95523 -8.13075,10.08155 -8.995157,19.51833 -31.455486,76.68127 -36.588421,95.77465 -4.804438,17.87145 -5.203964,37.30343 -8.130759,55.44848 -4.457985,27.63784 19.860349,74.84025 32.523043,95.77465 14.439617,23.87207 35.987517,65.62926 56.915317,80.65233 43.99014,31.57842 106.64116,54.06144 154.48444,20.16309 3.32787,-2.35791 4.84409,-7.63641 8.13075,-10.08155 3.67462,-2.73374 8.36327,-2.66453 12.19615,-5.04077 19.28207,-11.95416 53.91281,-43.44295 65.04607,-65.53002 6.02943,-11.96165 7.99159,-27.29281 12.19614,-40.32617 5.92854,-18.37738 6.31265,-6.10503 12.19614,-35.28539 0.986,-4.89026 -0.66834,-10.15013 0,-15.12233 11.25176,-83.70808 -3.2167,-178.38444 -44.71917,-246.99777 -17.86227,-29.53051 -32.82554,-73.27871 -60.98071,-90.73388 -13.99803,-8.67825 -48.30287,-8.11658 -60.98069,-10.08153 z"
         id="path43" />
    </g>
    <g
       inkscape:groupmode="layer"
       id="layer20"
       inkscape:label="004a J"
       style="display:none;stroke-width:80;stroke-dasharray:none">
      <path
         style="fill:none;stroke:#000000;stroke-width:80;stroke-linecap:round;stroke-dasharray:none"
         d="m 305.76923,213.46153 c 20.20588,0.28459 42.59373,5.74323 63.46154,3.84616 2.63216,-0.23929 5.06015,-1.68379 7.69231,-1.92308 10.73168,-0.97561 20.71075,-0.49333 30.76923,-3.84615 6.72661,-2.24221 17.91354,0 25,0"
         id="path41" />
      <path
         style="fill:none;stroke:#000000;stroke-width:80;stroke-linecap:round;stroke-dasharray:none"
         d="m 367.30769,228.84615 c -0.4373,55.90982 6.26011,111.45174 7.69231,167.30769 0.8423,32.84959 -2.14487,65.45767 -5.76923,98.07692 -1.92308,17.3077 -2.7429,34.77386 -5.76923,51.92308 -0.81101,4.59573 -2.88476,8.89491 -3.84615,13.46154 -1.60656,7.63114 -1.86151,15.53528 -3.84616,23.07692 -1.24241,4.72117 -4.12727,8.86405 -5.76923,13.46154 -5.80605,16.25696 -10.84169,33.34262 -15.38461,50 -8.64505,31.69851 9.99653,-24.0679 -9.61539,26.92308 -3.25722,8.46878 -5.00167,16.92599 -9.61538,25 -6.10211,10.67868 -2.36172,0.87729 -9.61539,15.38461 -0.90654,1.8131 -0.70681,4.14755 -1.92307,5.76923 -0.86003,1.14671 -2.83261,0.90953 -3.84616,1.92308 -1.01355,1.01355 -1.28205,2.5641 -1.92307,3.84616 -3.20513,2.5641 -6.49897,5.02109 -9.61539,7.6923 -1.3766,1.17995 -2.22447,3.03532 -3.84615,3.84616 -15.78689,7.89344 -39.16807,5.24331 -55.76923,1.92307 C 182.55346,729.203 137.00831,715.45564 100,684.61538 95.45984,680.83191 92.948718,675 88.461539,671.15384 80.516284,664.34362 80.139708,663.47879 75,655.76923 c -0.795094,-1.19265 -3.051059,-0.73044 -3.846154,-1.92308 -1.124433,-1.68665 -1.016529,-3.95614 -1.923076,-5.76923 -4.958343,-9.91669 -13.461539,-21.07123 -13.461539,-32.69231"
         id="path42" />
    </g>
    <g
       inkscape:groupmode="layer"
       id="layer16"
       inkscape:label="0049 I"
       style="display:none;stroke-width:80;stroke-dasharray:none">
      <path
         style="fill:none;stroke:#000000;stroke-width:80;stroke-linecap:round;stroke-dasharray:none"
         d="m 100,201.92308 c 43.45814,-4.45946 87.31912,0.49885 130.76923,-3.84616 12.80162,-1.28016 25.65992,-4.48907 38.46154,-5.76923 20.30972,-2.03097 41.22874,2.03097 61.53846,0 11.6726,-1.16726 23.2502,-5.76923 34.61539,-5.76923"
         id="path38" />
      <path
         style="fill:none;stroke:#000000;stroke-width:80;stroke-linecap:round;stroke-dasharray:none"
         d="m 226.92308,207.69231 c -3.91996,14.90004 -0.88749,29.14348 0,44.23077 1.20071,20.41216 1.30337,41.19619 3.84615,61.53846 0.73304,5.86433 3.11311,11.44336 3.84615,17.30769 0.55657,4.45253 -0.42542,8.99457 0,13.46154 1.28924,13.53695 4.921,26.81289 5.76924,40.38461 0.35987,5.758 -0.26197,11.54442 0,17.3077 0.64102,8.33333 1.28205,16.66666 1.92307,25 0.64103,3.20513 1.62715,6.3602 1.92308,9.61538 1.26365,13.90019 0,28.3382 0,42.30769 0,11.53847 1.04464,23.12431 0,34.61539 -0.97559,10.73149 -4.78584,19.95188 -5.76923,30.76923 -2.45684,27.02527 0,55.56342 0,82.69231 0,7.82369 1.16942,18.73714 0,26.92307 -0.46225,3.23575 -1.51766,6.37203 -1.92308,9.61539 -1.08286,8.66289 2.7762,20.51757 0,28.84615 -2.02283,6.06851 -2.92608,12.79026 -3.84615,19.23077 -0.36262,2.53833 0.62188,5.20476 0,7.69231 -0.69529,2.78116 -2.93961,4.97267 -3.84616,7.69231 -0.77816,2.33449 0,7.00671 0,9.61538"
         id="path39" />
      <path
         style="fill:none;stroke:#000000;stroke-width:80;stroke-linecap:round;stroke-dasharray:none"
         d="m 80.769231,744.23077 c 24.096499,2.41487 48.848369,3.26911 73.076919,1.92308 7.70709,-0.42818 15.35796,-1.92308 23.07693,-1.92308 48.77245,0 -30.11581,4.98507 25,1.92308 7.06946,-0.39275 14.07348,-1.92308 21.15384,-1.92308 11.35717,0 22.97938,3.86241 34.61539,1.92308 10.69524,-1.78254 21.84186,-2.29609 32.69231,-3.84616 8.75056,-1.25008 9.5948,-3.6279 19.23076,-5.76923 7.457,-1.65711 15.63347,-0.43438 23.07693,-1.92308 9.6909,-1.93818 18.8517,-1.92307 28.84615,-1.92307"
         id="path40" />
    </g>
    <g
       inkscape:groupmode="layer"
       id="layer15"
       inkscape:label="0048 H"
       style="display:none;stroke-width:80;stroke-dasharray:none">
      <path
         style="fill:none;stroke:#000000;stroke-width:80;stroke-linecap:round;stroke-dasharray:none"
         d="m 76.923077,211.53846 c -1.539371,25.73967 2.684067,51.35718 3.846154,76.92308 0.407504,8.9651 -0.426867,17.95887 0,26.92308 0.851938,17.8907 3.063559,35.84646 3.846154,53.84615 1.001184,23.02724 -1.211339,46.21534 0,69.23077 0.204937,3.89382 1.599265,7.65272 1.923077,11.53846 1.056402,12.67683 0,25.73532 0,38.46154 0,12.11853 1.225738,26.20415 0,38.46154 -0.325239,3.25238 -1.705653,6.35402 -1.923077,9.61538 -1.277349,19.16023 0.20396,38.54897 -1.923077,57.69231 -1.715275,15.43747 -5.765966,30.74311 -7.692308,46.15385 -1.083048,8.66438 0,18.18673 0,26.92307 0,19.23077 0,38.46154 0,57.69231"
         id="path35" />
      <path
         style="fill:none;stroke:#000000;stroke-width:80;stroke-linecap:round;stroke-dasharray:none"
         d="m 101.92308,467.30769 c 31.60405,-1.58028 62.68525,7.74083 94.23077,5.76923 2.63787,-0.16486 5.07585,-1.54929 7.6923,-1.92307 6.37748,-0.91107 12.85329,-1.01201 19.23077,-1.92308 18.62629,-2.6609 36.87861,-8.26606 55.76923,-9.61539 41.7068,0 1.74376,1.39925 25,-1.92307 12.12695,-1.73242 24.29012,1.31648 34.61539,-3.84616 4.17389,-2.08694 26.86085,0 32.69231,0 1.62601,0 6.69168,-1.00062 7.6923,0 3.20513,3.20513 -7.05128,1.92308 3.84616,1.92308"
         id="path36" />
      <path
         style="fill:none;stroke:#000000;stroke-width:80;stroke-linecap:round;stroke-dasharray:none"
         d="m 403.84615,180.76923 c 2.47061,13.25634 5.76923,26.77227 5.76923,40.38462 0,3.8992 -1.64527,7.64916 -1.92307,11.53846 -0.36537,5.11517 0,10.25641 0,15.38461 -1.28205,9.61539 -2.92646,19.18937 -3.84616,28.84616 -2.117,22.22849 1.48567,45.02274 0,67.30769 -0.30151,4.5227 -1.28205,8.97436 -1.92307,13.46154 -0.64103,10.89743 -1.50353,21.7841 -1.92308,32.69231 -0.76192,19.80985 1.23651,39.83124 0,59.61538 -1.45549,23.28786 -1.92308,45.85056 -1.92308,69.23077 0,26.51975 2.40096,54.35871 0,80.76923 -0.23928,2.63216 -1.6312,5.06546 -1.92307,7.69231 -0.92027,8.28236 0.69204,16.69545 0,25 -0.21949,2.63388 -1.5493,5.07585 -1.92308,7.69231 -0.71795,5.02564 0.71795,10.35897 0,15.38461 -0.20271,1.41897 -1.64197,2.44061 -1.92308,3.84615 -0.50286,2.51431 0.62189,5.20477 0,7.69231 -1.93976,7.75906 -4.62446,15.06354 -5.76923,23.07693 -1.09009,7.63065 3.29124,20.3406 0,26.92307 -3.21263,6.42526 -1.92308,15.40768 -1.92308,23.07693"
         id="path37" />
    </g>
    <g
       inkscape:groupmode="layer"
       id="layer14"
       inkscape:label="0046 F"
       style="display:none;stroke-width:80;stroke-dasharray:none">
      <path
         d=""
         id="path16"
         style="stroke-width:80;stroke-dasharray:none" />
      <path
         style="fill:none;stroke:#000000;stroke-width:80;stroke-linecap:round;stroke-dasharray:none"
         d="m 105.76923,173.07692 c -1.47354,17.4575 2.61261,34.6535 3.84615,51.92308 1.49694,20.95713 0,42.4138 0,63.46154 0,32.50076 1.80246,65.63279 0,98.07692 -1.31959,23.75268 -2.59539,47.38942 -3.84615,71.15385 -0.67265,12.78033 0.91181,25.69616 0,38.46154 -0.18831,2.6363 -1.59525,5.0697 -1.92308,7.6923 -0.95411,7.63291 0.58998,15.40728 0,23.07693 -0.25069,3.25897 -1.56212,6.36677 -1.92307,9.61538 -1.16325,10.46922 0.89873,20.52577 1.92307,30.76923 1.00874,10.08738 0,20.6275 0,30.76923 0,6.41026 1.25716,12.945 0,19.23077 -0.39754,1.98774 -1.52553,3.7815 -1.92307,5.76923 -1.47929,7.39645 1.47929,15.68048 0,23.07693 -0.28111,1.40554 -1.68743,2.43228 -1.92308,3.84615 -1.111681,6.67008 1.63791,14.6022 0,21.15385 -0.983288,3.93315 -2.966674,7.5808 -3.846154,11.53846 -1.898704,8.54417 1.715996,18.34309 0,26.92307 -0.950784,4.75393 -0.782389,10.82187 -1.923077,15.38462 -1.930085,7.72034 -3.846154,13.14926 -3.846154,21.15385"
         id="path17" />
      <path
         style="fill:none;stroke:#000000;stroke-width:80;stroke-linecap:round;stroke-dasharray:none"
         d="m 111.53846,182.69231 c 6.39367,0.56463 12.83158,-0.37643 19.23077,0 31.17669,1.83392 61.00148,1.84154 92.30769,0 26.26715,-1.54513 52.37985,-6.49279 78.84616,-3.84616 6.78624,-0.67845 12.74404,3.03532 19.23077,3.84616 17.80429,2.22553 35.81302,3.84615 53.84615,3.84615 2.33652,0 5.50751,0.72827 7.69231,0 5.70101,-1.90033 11.38719,-4.2891 17.30769,-5.76923 2.63645,-0.65911 11.66587,1.79567 13.46154,0 0.45327,-0.45327 -0.45328,-1.4698 0,-1.92308 0.50905,-0.50905 4.97737,0 5.76923,0"
         id="path18" />
      <path
         style="fill:none;stroke:#000000;stroke-width:80;stroke-linecap:round;stroke-dasharray:none"
         d="m 121.15385,438.46154 c 6.41025,1.92308 12.6401,4.60617 19.23077,5.76923 10.73161,1.89381 21.80181,-0.38895 32.6923,0 76.94684,2.7481 4.77787,2.94657 51.92308,0 28.69484,-1.79343 57.78327,-2.78115 86.53846,-3.84615 10.88997,-0.40334 21.82257,0.77641 32.69231,0 18.88491,-1.34893 36.84972,-3.84616 55.76923,-3.84616"
         id="path19" />
    </g>
    <g
       inkscape:groupmode="layer"
       id="layer13"
       inkscape:label="0045 E"
       style="display:none;stroke-width:80;stroke-dasharray:none"
       sodipodi:insensitive="true">
      <path
         d=""
         id="path2"
         style="stroke-width:80;stroke-dasharray:none" />
      <path
         style="fill:none;stroke:#000000;stroke-width:80;stroke-linecap:round;stroke-dasharray:none"
         d="m 101.92308,226.92307 c 2.97573,52.70269 14.50531,104.28897 11.53846,157.69231 -0.63441,11.41928 -2.89324,23.1804 -3.84615,34.61539 -0.42588,5.11049 0.72523,10.30795 0,15.38461 -0.28668,2.00673 -1.28206,3.84615 -1.92308,5.76923 -0.64103,4.48718 -1.51271,8.94742 -1.92308,13.46154 -1.0509,11.55989 -2.70193,23.17319 -3.84615,34.61538 -0.57406,5.7406 1.13144,11.6505 0,17.3077 -0.28111,1.40554 -1.74529,2.42384 -1.92308,3.84615 -0.963492,7.70794 0,17.11487 0,25 0,14.74359 0,29.48718 0,44.23077 0,8.8028 0.79052,18.22733 0,26.92308 -0.239287,2.63216 -1.631205,5.06545 -1.923077,7.6923 -1.7214,15.49261 0,32.36547 0,48.07693 0,4.94879 0.07665,8.46221 -1.923077,13.46154 -0.336683,0.8417 -1.636401,1.06305 -1.923077,1.92307 -3.668967,11.0069 3.681826,40.8776 0,51.92308 -0.456308,1.36892 -4.035985,7.50248 -1.923077,9.61538 4.697743,4.69775 29.139718,1.92308 34.615388,1.92308 8.33333,0 16.70089,0.75447 25,0 2.01877,-0.18352 3.7625,-1.6364 5.76923,-1.92308 7.64139,-1.09162 15.38461,-1.28205 23.07692,-1.92307 34.39657,-2.86638 69.43955,1.92307 103.84615,1.92307 15.38462,0 30.76924,0 46.15385,0 7.76049,0 17.21957,-1.29673 25,0 15.63332,2.60556 30.37325,5.76924 46.15385,5.76924"
         id="path3" />
      <path
         style="fill:none;stroke:#000000;stroke-width:80;stroke-linecap:round;stroke-dasharray:none"
         d="m 134.61538,476.92307 c 5.12821,0 10.26777,0.34113 15.38462,0 4.5227,-0.30151 8.94032,-1.60013 13.46154,-1.92307 16.03983,-1.14571 32.02145,1.92307 48.07692,1.92307 13.24679,0 27.26614,-1.63981 40.38462,0 2.01144,0.25143 3.74213,1.92308 5.76923,1.92308 3.8992,0 7.6631,-1.49248 11.53846,-1.92308 10.43389,-1.15932 31.90193,-1.48653 42.30769,0 2.00673,0.28668 3.7815,1.52553 5.76923,1.92308 1.66532,0.33306 8.43519,-1.1802 9.61539,0 0.45327,0.45327 -0.45328,1.4698 0,1.92308 0.50905,0.50905 4.97737,0 5.76923,0"
         id="path4" />
      <path
         style="fill:none;stroke:#000000;stroke-width:80;stroke-linecap:round;stroke-dasharray:none"
         d="m 115.38461,225 c 4.48718,-3.20513 8.4415,-7.33355 13.46154,-9.61539 5.25212,-2.38732 11.54735,0.32002 17.3077,0 41.69506,-2.31639 9.53568,-1.92308 40.38461,-1.92308 18.8191,0 36.95698,0.13144 55.76923,1.92308 28.90472,2.75283 1.86853,1.48967 40.38462,5.76923 19.98109,2.22012 41.29853,0 61.53846,0 6.1386,0 11.6987,2.44391 17.30769,3.84616 7.12425,1.78106 13.0607,-1.92308 19.23077,-1.92308"
         id="path5" />
    </g>
    <g
       inkscape:groupmode="layer"
       id="layer12"
       inkscape:label="0029 parenright"
       style="display:none;stroke-width:80;stroke-dasharray:none"
       sodipodi:insensitive="true">
      <path
         d=""
         id="path32"
         style="stroke-width:80;stroke-dasharray:none" />
      <path
         d=""
         id="path30-5"
         style="stroke-width:80;stroke-dasharray:none" />
      <path
         style="fill:none;stroke:#000000;stroke-width:80;stroke-linecap:round;stroke-dasharray:none;stroke-opacity:1"
         d="m 208.8461,127.03981 c 3.2052,-0.64103 6.3721,-2.3285 9.6154,-1.92308 2.2934,0.28668 3.702,2.81253 5.7693,3.84616 1.8131,0.90654 4.031,0.88014 5.7692,1.92307 10.3879,6.23275 16.9842,19.82837 25,28.84616 2.4091,2.71024 5.6809,4.67513 7.6923,7.6923 4.4554,6.68306 7.406,14.26644 11.5385,21.15385 3.298,5.49675 7.9827,10.05096 11.5384,15.38462 8.7019,13.05287 17.0905,27.76905 23.0769,42.30769 13.717,33.31259 21.8068,68.64917 28.8462,103.84615 0.3771,1.88573 -0.3771,3.8835 0,5.76923 0.5569,2.78425 3.2893,6.83114 3.8462,9.61539 3.5561,17.78063 6.7844,35.68842 7.6923,53.84615 1.0891,21.78181 0.7648,45.89191 0,67.30769 -0.5735,16.05817 -4.3156,32.08673 -5.7693,48.07693 -2.0777,22.85521 2.8449,46.47155 0,69.23077 -4.0292,32.23353 -2.2148,11.07393 -5.7692,28.84615 -2.652,13.26013 -3.4121,27.5441 -7.6923,40.38461 -0.9066,2.71965 -2.8665,4.99816 -3.8462,7.69231 -12.4316,34.18711 1.7369,-1.36454 -5.7692,21.15385 -6.5717,19.71499 -18.2891,38.17418 -28.8461,55.76923 -5.6224,9.37064 -8.4852,16.72066 -15.3847,25 -5.5991,6.719 -9.9211,14.32453 -15.3846,21.15385 -2.2466,2.8083 -5.3694,3.44635 -7.6923,5.76923 -2.9023,2.90236 -5.0211,6.49896 -7.6923,9.61538 -4.5524,5.31115 -11.4881,9.53984 -15.3846,15.38462 -4.2282,6.34233 -9.0949,14.16282 -15.3846,17.30769 -4.0408,2.02039 -7.1792,11.53846 -11.5385,11.53846"
         id="path31-6" />
    </g>
    <g
       inkscape:groupmode="layer"
       id="layer11"
       inkscape:label="0028 parenleft"
       style="display:none;stroke-width:80;stroke-dasharray:none"
       sodipodi:insensitive="true">
      <path
         d=""
         id="path30"
         style="stroke-width:80;stroke-dasharray:none" />
      <path
         style="fill:none;stroke:#000000;stroke-width:80;stroke-linecap:round;stroke-dasharray:none;stroke-opacity:1"
         d="m 313.46154,117.30769 c -3.20513,-0.64103 -6.37203,-2.3285 -9.61539,-1.92308 -2.2934,0.28668 -3.70198,2.81253 -5.76923,3.84616 -1.81309,0.90654 -4.03101,0.88014 -5.76923,1.92307 -10.38791,6.23275 -16.98419,19.82837 -25,28.84616 -2.40911,2.71024 -5.68086,4.67513 -7.69231,7.6923 -4.45537,6.68306 -7.40602,14.26644 -11.53846,21.15385 -3.29805,5.49675 -7.98269,10.05096 -11.53846,15.38462 -8.70192,13.05287 -17.09043,27.76905 -23.07692,42.30769 -13.71696,33.31259 -21.80676,68.64917 -28.84616,103.84615 -0.37714,1.88573 0.37715,3.8835 0,5.76923 -0.55685,2.78425 -3.2893,6.83114 -3.84615,9.61539 -3.55613,17.78063 -6.78442,35.68842 -7.69231,53.84615 -1.08909,21.78181 -0.76485,45.89191 0,67.30769 0.57351,16.05817 4.31558,32.08673 5.76923,48.07693 2.07775,22.85521 -2.8449,46.47155 0,69.23077 4.02919,32.23353 2.21479,11.07393 5.76923,28.84615 2.65203,13.26013 3.41214,27.5441 7.69231,40.38461 0.90655,2.71965 2.86646,4.99816 3.84615,7.69231 12.43168,34.18711 -1.7369,-1.36454 5.76923,21.15385 6.57167,19.71499 18.28913,38.17418 28.84616,55.76923 5.62238,9.37064 8.48517,16.72066 15.38461,25 5.59917,6.719 9.92117,14.32453 15.38462,21.15385 2.24664,2.8083 5.36943,3.44635 7.69231,5.76923 2.90236,2.90236 5.02109,6.49896 7.6923,9.61538 4.55242,5.31115 11.4881,9.53984 15.38462,15.38462 4.22822,6.34233 9.09488,14.16282 15.38461,17.30769 4.04079,2.02039 7.17922,11.53846 11.53847,11.53846"
         id="path31" />
    </g>
    <g
       inkscape:groupmode="layer"
       id="layer10"
       inkscape:label="0027 quotesingle"
       style="display:none;stroke-width:80;stroke-dasharray:none"
       sodipodi:insensitive="true">
      <path
         d=""
         id="path29"
         style="stroke-width:80;stroke-dasharray:none" />
      <path
         style="display:inline;fill:none;stroke:#000000;stroke-width:80;stroke-linecap:round;stroke-dasharray:none;stroke-opacity:1"
         d="m 254.61538,168.53846 c 7.09139,37.54361 5.76924,75.49309 5.76924,113.46154"
         id="path10-7" />
    </g>
    <g
       inkscape:groupmode="layer"
       id="layer9"
       inkscape:label="0026 ampersand"
       style="display:inline;stroke-width:80;stroke-dasharray:none"
       sodipodi:insensitive="true">
      <path
         d=""
         id="path27"
         style="stroke-width:80;stroke-dasharray:none" />
      <path
         style="fill:none;stroke:#000000;stroke-width:80;stroke-linecap:round;stroke-dasharray:none;stroke-opacity:1"
         d="m 444.23077,784.61538 c -3.20615,-34.36078 -1.92307,-69.23895 -1.92307,-103.84615 0,-24.3325 7.49559,-68.761 -1.92308,-92.30769 -1.28205,-2.5641 -2.5641,-5.12821 -3.84615,-7.69231 -0.64103,-0.64102 -1.51766,-1.11224 -1.92308,-1.92308 C 422.73555,555.08648 411.53126,541.44738 390.38462,525 c -3.64878,-2.83794 -8.05968,-4.64837 -11.53846,-7.69231 -1.7394,-1.52197 -2.21186,-4.13493 -3.84616,-5.76923 -11.04894,-11.04894 -43.98138,-23.04575 -59.61538,-25 -2.5443,-0.31804 -5.16957,0.45868 -7.69231,0 -4.59146,-0.83481 -8.8583,-3.07895 -13.46154,-3.84615 -3.16152,-0.52692 -6.435,0.39754 -9.61538,0 -23.24915,-2.90615 -46.98598,-8.71118 -69.23077,-15.38462 -5.2604,-1.57812 -12.06151,-1.82839 -17.30769,-3.84615 C 151.89336,445.69863 105.91589,418.59515 74.999996,378.84615 63.745593,364.3762 56.178838,346.97306 48.076923,330.76923 c -0.40542,-0.81084 -1.586394,-1.08137 -1.923077,-1.92308 -0.887066,-2.21766 -7.344915,-31.46401 -5.769231,-34.61538 6.562579,-13.12516 10.815903,-26.02581 15.384616,-40.38462 4.953869,-15.5693 8.828636,-36.62583 19.230765,-50 32.980814,-42.40389 75.289664,-46.15384 126.923084,-46.15384 15.92756,0 25.32298,-0.17779 44.23077,1.92307 5.87382,0.65265 11.47005,2.92443 17.30769,3.84616 12.14178,1.91712 22.26984,0.74399 32.69231,7.69231 5.40647,3.60431 12.61234,8.76618 17.30769,13.46153 6.46029,6.46029 8.85666,17.32521 13.46154,25 0.93283,1.55472 3.20953,2.14851 3.84615,3.84616 1.36911,3.65094 1.10608,7.72581 1.92308,11.53846 1.10758,5.1687 3.26241,10.13091 3.84616,15.38462 2.82547,25.42931 -0.18357,11.45101 -1.92308,28.84615 -1.2033,12.033 -2.44248,24.89483 -5.76923,36.53846 -10.36949,36.29321 -50.82475,69.5403 -78.84616,92.30769 -3.58758,2.91492 -7.97021,4.75375 -11.53846,7.69231 -10.52017,8.66367 -20.51282,17.94872 -30.76923,26.92308 -19.33992,16.92243 -39.52758,37.70258 -55.76923,57.69231 -12.30364,15.14293 -21.36084,33.06489 -30.76923,50 -7.48828,13.4789 -17.50784,25.90499 -23.076924,40.38461 -7.89553,20.52838 -12.37869,42.10253 -17.3077,63.46154 -1.23153,5.33667 -4.53769,10.04795 -5.76923,15.38461 -1.30525,5.65609 -0.96878,11.58194 -1.92307,17.3077 -2.43107,14.5864 -1.85884,-4.4243 -3.846157,13.46154 -1.959319,17.63387 0.863691,31.92081 11.538457,46.15384 15.81259,21.08345 40.563454,26.92308 65.384624,26.92308 7.69231,0 15.56779,1.66869 23.07692,0 23.92,-5.31556 40.69815,-17.12348 61.53846,-28.84616 15.90138,-8.94452 31.50063,-17.64074 46.15385,-28.84615 7.92135,-6.0575 14.10256,-14.10256 21.15385,-21.15385 10.25641,-10.25641 21.21778,-19.85329 30.76923,-30.76923 3.04394,-3.47878 4.77739,-7.95087 7.69231,-11.53846 1.16687,-1.43615 20.90915,-22.41769 25,-28.84615 2.30863,-3.62786 3.38394,-7.96054 5.76923,-11.53846 5.83189,-8.74785 13.65857,-16.08449 19.23077,-25 5.73491,-9.17587 9.80832,-19.55233 15.38461,-28.84616 3.58497,-5.97495 8.77961,-10.87037 11.53846,-17.30769 6.84441,-15.97028 1.18759,-3.56276 7.69231,-23.07692 7.18248,-21.54744 15.38462,-42.83337 15.38462,-65.38462"
         id="path28" />
    </g>
    <g
       inkscape:groupmode="layer"
       id="layer8"
       inkscape:label="0025 percent"
       style="display:none;stroke-width:80;stroke-dasharray:none"
       sodipodi:insensitive="true">
      <path
         d=""
         id="path23"
         style="stroke-width:80;stroke-dasharray:none" />
      <path
         style="fill:none;stroke:#000000;stroke-width:80;stroke-linecap:round;stroke-dasharray:none;stroke-opacity:1"
         d="M 436.53846,130.76924 C 432.6923,137.17949 428.96204,143.66073 425,150 412.19183,170.49307 398.29043,190.38491 386.53846,211.53847 366.35088,247.8761 353.17821,287.87433 334.61538,325 c -2.70449,5.40898 -6.78587,10.03998 -9.61538,15.38462 -2.95395,5.57968 -4.78616,11.70297 -7.69231,17.30769 -11.02647,21.26532 -19.67223,33.45966 -28.84616,53.84616 -16.56432,36.8096 -30.00998,75.40458 -48.07692,111.53846 -2.31125,4.6225 -5.47991,8.79092 -7.69231,13.46154 -5.04504,10.65065 -7.21544,22.69855 -13.46154,32.6923 -1.4414,2.30626 -4.16961,3.56976 -5.76923,5.76923 -15.19953,20.89937 -28.93734,44.41316 -40.38461,67.3077 -8.49484,16.98968 -19.14837,32.50691 -26.92308,50 -9.55877,21.50722 -18.44366,44.57963 -28.84615,65.38461 -1.43338,2.86676 -4.33586,4.82556 -5.76923,7.69231 -1.07897,2.15794 -0.80928,5.46471 -1.92308,7.69231 -0.81084,1.62168 -3.03531,2.22447 -3.84615,3.84615 -1.182,2.36399 -0.74109,5.32832 -1.92308,7.69231 -1.69181,3.38362 -6.000495,6.23176 -7.692305,9.61538 -0.28667,0.57335 0.45328,1.46981 0,1.92308 -0.45327,0.45327 -1.34972,-0.28667 -1.92308,0 -1.84908,0.92454 -3.84615,5.85775 -3.84615,7.69231"
         id="path24" />
      <path
         style="fill:none;stroke:#000000;stroke-width:80;stroke-linecap:round;stroke-dasharray:none;stroke-opacity:1"
         d="m 138.46154,113.46154 c -4.67766,0 -10.97968,-1.01355 -15.38462,1.92308 -14.85241,9.9016 -32.117176,43.69876 -36.538458,59.61538 -1.0294,3.70584 0.477056,7.72201 0,11.53846 -6.711463,53.6917 -2.619337,-29.27791 -5.769231,55.76923 -0.548105,14.79884 -0.03458,29.54838 1.923077,44.23077 5.667805,42.50854 36.031592,57.58255 71.153842,28.84616 13.17341,-10.77825 34.21134,-37.97202 40.38462,-53.84616 8.3166,-21.38553 5.69748,-20.93859 11.53846,-38.46154 1.09163,-3.27488 3.20999,-6.22248 3.84615,-9.61538 4.71552,-25.14944 -1.06552,-57.36752 -15.38461,-78.84616 -2.83884,-4.25825 -6.28893,-13.63477 -11.53846,-15.38461 -1.21626,-0.40542 -2.69945,0.57335 -3.84616,0 -2.0112,-1.0056 -5.19695,-5.27016 -7.6923,-5.76923 -2.51431,-0.50286 -5.1631,0.42153 -7.69231,0 -1.41388,-0.23565 -2.48633,-1.4698 -3.84616,-1.92308 -4.71757,-1.57252 -19.77716,1.72641 -21.15384,1.92308 z"
         id="path25" />
      <path
         style="fill:none;stroke:#000000;stroke-width:80;stroke-linecap:round;stroke-dasharray:none;stroke-opacity:1"
         d="m 328.84615,613.46154 c -2.5641,0 -5.46604,-1.27215 -7.6923,0 -2.78284,1.59019 -4.07052,4.97437 -5.76924,7.69231 -18.474,29.55841 -9.90735,13.30039 -17.30769,38.46154 -2.78102,9.45548 -8.8095,22.21578 -9.61538,32.6923 -2.5019,32.52469 8.81319,68.15606 30.76923,92.3077 9.15554,10.07109 22.0411,19.00895 36.53846,15.38461 25.08726,-6.27181 47.39,-30.95212 57.69231,-53.84615 9.7679,-21.70644 16.44339,-45.53807 19.23077,-69.23077 1.06184,-6.35145 -0.7079,-12.85972 0,-19.23077 0.36095,-3.24861 1.92307,-6.34678 1.92307,-9.61538 0,-4.81437 -2.69686,-5.59287 -3.84615,-9.61539 -0.89795,-3.14284 -0.77539,-6.5549 -1.92308,-9.61538 -2.36798,-6.31463 -2.98887,-4.21687 -5.76923,-7.69231 -2.00223,-2.50279 -3.50286,-5.42594 -5.76923,-7.69231 -10.55591,-10.55591 -35.4829,-17.30769 -50,-17.30769 -11.97088,0 -26.13637,-1.35489 -36.53846,3.84615 -1.1467,0.57335 -3.84615,-1.28205 -3.84615,0 0,4.53274 1.28205,8.97436 1.92307,13.46154 z"
         id="path26" />
    </g>
    <g
       inkscape:groupmode="layer"
       id="layer7"
       inkscape:label="0024 dollar"
       style="display:none;stroke-width:80;stroke-dasharray:none"
       sodipodi:insensitive="true">
      <path
         d=""
         id="path20"
         style="stroke-width:80;stroke-dasharray:none" />
      <path
         style="fill:none;stroke:#000000;stroke-width:80;stroke-linecap:round;stroke-dasharray:none;stroke-opacity:1"
         d="m 405.76923,255.76923 c -19.15828,-19.44748 -46.97985,-41.11742 -75,-44.23077 -3.18552,-0.35395 -6.41025,0 -9.61538,0 -7.69231,-0.64103 -15.41082,-1.02118 -23.07692,-1.92308 -22.59589,-2.65834 -40.97506,0.0984 -63.46154,3.84616 -8.08403,1.34733 -16.87217,0.76195 -25,1.92307 -12.19736,1.74248 -23.31219,7.29977 -34.61539,11.53846 -2.47473,0.92803 -5.45103,0.52229 -7.6923,1.92308 -2.87905,1.79941 -19.06981,16.45205 -21.15385,19.23077 -3.44011,4.58681 -4.51193,10.61405 -7.69231,15.38462 -8.98054,13.47081 -20.48236,27.36608 -23.07692,44.23077 -2.23934,14.55573 -1.68723,23.04062 0,36.53846 0.31804,2.5443 0,5.1282 0,7.6923 0.64102,7.05129 0.98731,14.1356 1.92308,21.15385 2.62202,19.66518 18.96932,53.58471 32.6923,67.30769 5.84252,5.84252 13.1441,9.97424 19.23077,15.38462 16.16446,14.36841 31.59172,29.7481 51.92308,38.46154 15.65531,6.70942 32.21555,11.10107 48.07692,17.30769 4.00447,1.56696 7.54589,4.1722 11.53846,5.76923 2.45398,0.98159 5.12821,1.28205 7.69231,1.92308 5.76923,1.92307 11.77148,3.25277 17.30769,5.76923 1.65058,0.75026 2.22448,3.03531 3.84616,3.84615 24.95486,12.47744 -20.05306,-19.13794 23.07692,9.61539 4.91739,3.27825 8.68194,8.06238 13.46154,11.53846 2.31845,1.68614 5.56147,1.92839 7.69231,3.84615 14.49506,13.04556 7.52026,10.27892 17.30769,21.15385 3.63869,4.04298 7.9248,7.47309 11.53846,11.53846 11.1673,12.56321 18.82273,35.25763 17.30769,51.92308 -0.64436,7.08794 -2.44508,7.15674 -3.84615,13.46153 -0.84586,3.80636 -0.80265,7.8037 -1.92308,11.53847 -9.07664,30.25548 -51.13289,56.33567 -76.92307,69.23077 -11.64894,5.82446 -26.33673,9.41993 -38.46154,13.46153 -15.43803,5.14601 -31.71715,10.05121 -48.07693,11.53847 -8.9375,0.8125 -17.94871,0 -26.92307,0 -22.65272,0 -42.41171,1.87579 -63.46154,-7.69231 -1.73988,-0.79086 -11.53846,-3.61647 -11.53846,-5.76923"
         id="path21" />
      <path
         style="fill:none;stroke:#000000;stroke-width:80;stroke-linecap:round;stroke-dasharray:none;stroke-opacity:1"
         d="m 238.46154,121.15384 c 12.03028,43.98247 13.5509,89.5339 17.30769,134.61539 0.27145,3.25731 1.73114,6.35242 1.92308,9.61538 1.94126,33.00146 0.26762,67.13959 -1.92308,100 -1.78071,26.71073 2.6633,54.13632 0,80.76923 -1.40056,14.00562 -2.44694,28.31555 -3.84615,42.3077 -0.26299,2.6299 -1.70359,5.05842 -1.92308,7.6923 -1.62734,19.52812 0,40.03279 0,59.61539 0,30.15084 -2.49053,62.42127 0,92.30769 0.37643,4.51708 1.60014,8.94032 1.92308,13.46154 0.3197,4.47578 -0.44649,8.99663 0,13.46154 -1.14007,12.04229 4.31832,23.00809 5.76923,34.61538 1.429,11.43197 0,25.08097 0,36.53846 0,28.84616 0,57.69231 0,86.53847"
         id="path22" />
    </g>
    <g
       inkscape:groupmode="layer"
       id="layer6"
       inkscape:label="0023 numbersign"
       style="display:none;stroke-width:80;stroke-dasharray:none"
       sodipodi:insensitive="true">
      <path
         d=""
         id="path11"
         style="stroke-width:80;stroke-dasharray:none" />
      <path
         style="fill:none;stroke:#000000;stroke-width:80;stroke-linecap:round;stroke-dasharray:none;stroke-opacity:1"
         d="m 134.61538,271.15385 c -0.57303,19.38613 4.75307,38.38518 5.76924,57.6923 0.6012,11.42296 -0.87944,23.1827 0,34.61539 2.22044,28.86578 1.92307,57.55588 1.92307,86.53846 0,28.23412 0.24052,56.48864 -1.92307,84.61538 -0.84871,11.03323 -4.39669,21.71195 -5.76924,32.69231 -2.13046,17.04369 1.89718,34.84853 0,51.92308 -1.34479,12.10314 -4.41659,24.3647 -5.76923,36.53846 -1.25929,11.33363 -0.19377,23.37492 -1.92307,34.61539 -1.78521,11.60381 -4.80108,22.99752 -5.76923,34.61538 -0.80493,9.65915 1.61607,21.0728 0,30.76923 -0.23565,1.41388 -1.64197,2.44061 -1.92308,3.84615 -0.41146,2.0573 1.1747,9.18907 0,11.53847 -1.51255,3.02509 -1.92308,2.1803 -1.92308,5.76923"
         id="path12" />
      <path
         style="fill:none;stroke:#000000;stroke-width:80;stroke-linecap:round;stroke-dasharray:none;stroke-opacity:1"
         d="m 369.23077,261.53846 c -4.85709,18.92406 -6.39339,38.20846 -7.69231,57.69231 -2.35275,35.2912 -5.71504,70.26033 -3.84615,105.76923 2.74718,52.19648 6.75276,105.37337 3.84615,157.69231 -0.81551,14.67921 -3.72669,28.00993 -5.76923,42.30769 -3.18405,22.28837 -2.21249,45.38843 -7.69231,67.30769 -0.98329,3.93316 -3.17964,7.53942 -3.84615,11.53846 -0.6323,3.79383 0.38271,7.7114 0,11.53847 -0.77597,7.75971 -3.07018,15.31721 -3.84615,23.07692 -1.38108,13.81075 0,28.38854 0,42.30769"
         id="path13" />
      <path
         style="fill:none;stroke:#000000;stroke-width:80;stroke-linecap:round;stroke-dasharray:none;stroke-opacity:1"
         d="m 69.230769,409.61538 c 25.668924,-1.99522 51.310081,3.75258 76.923081,1.92308 10.60547,-0.75754 21.90074,-3.12214 32.69231,-1.92308 3.24861,0.36096 6.41025,1.28205 9.61538,1.92308 6.41026,0 12.8368,-0.45671 19.23077,0 2.6363,0.18831 5.04929,1.92308 7.69231,1.92308 5.80473,0 11.51771,-1.50951 17.30769,-1.92308 15.22858,-1.08776 30.68413,-0.89176 46.15385,-1.92308 27.28915,-1.81928 55.32095,0 82.6923,0 5.81632,0 50.29917,1.7735 53.84616,0 3.59053,-1.79526 5.21609,-1.92308 9.61538,-1.92308"
         id="path14" />
      <path
         style="fill:none;stroke:#000000;stroke-width:80;stroke-linecap:round;stroke-dasharray:none;stroke-opacity:1"
         d="m 76.923077,630.76923 c 63.238163,2.97706 126.950433,6.38352 190.384613,3.84615 29.17812,-1.16712 0.94324,-4.14777 36.53846,-1.92307 3.26224,0.20389 6.36301,1.59784 9.61539,1.92307 10.37618,1.03762 22.39723,0 32.69231,0 9.41168,0 19.61072,-1.53923 28.84615,0 13.33654,2.22276 24.94239,1.92308 38.46154,1.92308"
         id="path15" />
    </g>
    <g
       inkscape:groupmode="layer"
       id="layer5"
       inkscape:label="0022 quotedb"
       style="display:none;stroke-width:80;stroke-dasharray:none"
       sodipodi:insensitive="true">
      <path
         d=""
         id="path8"
         style="stroke-width:80;stroke-dasharray:none" />
      <path
         style="fill:none;stroke:#000000;stroke-width:80;stroke-linecap:round;stroke-dasharray:none;stroke-opacity:1"
         d="m 153.84616,128.84615 c -0.6854,31.72107 -0.40324,63.36842 5.76923,94.23077 1.06044,5.3022 -1.70347,12.19729 0,17.3077 0.75932,2.27798 4.68801,3.6068 5.76923,5.76923 0.83727,1.67455 1.92308,7.46882 1.92308,9.61538"
         id="path9" />
      <path
         style="fill:none;stroke:#000000;stroke-width:80;stroke-linecap:round;stroke-dasharray:none;stroke-opacity:1"
         d="M 361.53846,136.53846 C 368.62985,174.08207 367.3077,212.03155 367.3077,250"
         id="path10" />
    </g>
    <g
       inkscape:groupmode="layer"
       id="layer4"
       inkscape:label="0021 exclam"
       style="display:none;stroke-width:80;stroke-dasharray:none"
       sodipodi:insensitive="true">
      <path
         style="fill:none;stroke:#000000;stroke-width:80;stroke-linecap:round;stroke-dasharray:none;stroke-opacity:1"
         d="m 270.42395,593.61073 c -4.81159,-14.26225 -0.54308,-29.33376 -2.14342,-43.90198 -1.37977,-12.56021 -1.6581,-19.94172 0,-32.51998 0.77516,-5.88034 -1.10076,-12.04075 0,-17.88599 0.22594,-1.19977 1.88078,-2.05654 2.14342,-3.252 1.42863,-6.50249 0.92167,-18.09742 0,-24.38999 -0.32531,-2.22106 -1.77804,-4.28653 -2.14342,-6.504 -0.97483,-5.91596 0.60278,-11.94155 0,-17.88599 -0.84292,-8.31255 -4.65644,-16.31617 -6.43029,-24.38999 -1.26497,-5.75762 -0.63044,-12.14724 -2.14343,-17.88599 -0.4431,-1.68067 -1.8239,-3.18127 -2.14343,-4.87799 -2.30859,-12.25907 -0.12098,-25.12418 -2.14342,-37.39798 -3.03119,-18.39557 -4.39729,-36.77716 -6.43029,-55.28398 -1.19338,-10.86348 0.38024,-21.81961 2.14343,-32.51999 2.40766,-14.61157 0,-30.71858 0,-45.52797 0,-6.43902 2.21758,-24.22122 0,-29.26798 -0.31952,-0.72717 -1.94527,-0.87439 -2.14343,-1.626 -1.94041,-7.35994 1.01061,-13.96005 -2.14343,-21.13799 -2.15054,-4.89419 0,-44.99463 0,-53.65798"
         id="path6" />
      <path
         style="fill:none;stroke:#000000;stroke-width:80;stroke-linecap:round;stroke-dasharray:none;stroke-opacity:1"
         d="m 271.15385,750 c -2.56411,2.5641 -10.25641,5.12821 -7.69231,7.69231 2.5641,2.5641 5.1282,-5.12821 7.69231,-7.69231 z"
         id="path7" />
    </g>
  </g>
</svg>
