<?xml version="1.0" encoding="UTF-8" standalone="no"?>
<!-- Created with Inkscape (http://www.inkscape.org/) -->

<svg
   height="1000"
   width="500"
   version="1.1"
   id="svg1"
   viewBox="0 0 500 1000"
   xmlns="http://www.w3.org/2000/svg"
   xmlns:svg="http://www.w3.org/2000/svg"
   xmlns:rdf="http://www.w3.org/1999/02/22-rdf-syntax-ns#"
   xmlns:cc="http://creativecommons.org/ns#"
   xmlns:dc="http://purl.org/dc/elements/1.1/">
  <defs
     id="defs4" />
  <metadata
     id="metadata7">
    <rdf:RDF>
      <cc:Work
         rdf:about="">
        <dc:format>image/svg+xml</dc:format>
        <dc:type
           rdf:resource="http://purl.org/dc/dcmitype/StillImage" />
      </cc:Work>
    </rdf:RDF>
  </metadata>
  <g
     id="layer2"
     style="display:inline;stroke-width:80;stroke-dasharray:none">
    <g
       id="layer17"
       style="display:inline;stroke-width:80;stroke-dasharray:none">
      <path
         style="display:inline;fill:none;stroke:#000000;stroke-width:80;stroke-linecap:round;stroke-dasharray:none"
         d="m 67.857143,371.42857 c -0.319046,6.06187 -3.252383,11.79527 -3.571429,17.85714 -0.43799,8.32182 0.378397,16.67527 0,25 -1.048454,23.06599 -3.802998,46.4441 -1.785714,69.64286 3.377468,38.84089 7.450595,84.54405 25,119.64286 19.0145,38.029 52.89034,109.38883 94.64286,126.78571 25.04819,10.43675 53.55047,5.76561 76.78571,-7.14285 2.60166,-1.44537 4.5908,-3.82591 7.14286,-5.35715 6.39545,-3.83727 13.24741,-6.87701 19.64286,-10.71428 37.57496,-22.54498 63.4096,-60.59619 83.92857,-98.21429 12.25642,-22.47011 14.67251,-50.87122 21.42857,-75 1.37126,-4.89736 4.16383,-9.34198 5.35714,-14.28571 10.46422,-43.35175 6.31058,-24.1994 7.14286,-50 0.97621,-30.26268 5.04048,-64.39996 0,-94.64286 -0.0194,-0.11647 0.48599,-6.65687 0,-7.14286 -1.90232,-1.90231 -6.85166,11.55361 -7.14286,12.5 -6.29875,20.47094 -3.59154,55.6186 -5.35714,78.57143 -0.78145,10.15883 -2.72529,20.2035 -3.57143,30.35714 -0.96054,11.52653 1.78571,29.6509 1.78571,39.28572 0,9.59792 -3.03903,18.98828 -3.57142,28.57143 -1.06183,19.11291 0.32731,38.18362 1.78571,57.14285 1.79624,23.35118 1.78812,46.44419 5.35714,69.64286 1.22772,7.98019 2.48327,17.33633 5.35715,25 1.40202,3.73874 4.3887,6.84053 5.35714,10.71429 0.43154,1.72616 7.46741,32.46741 8.92857,33.92857"
         id="path44" />
    </g>
  </g>
</svg>
